<svg id="visual" viewBox="0 0 900 600" width="900" height="600" xmlns="http://www.w3.org/2000/svg" xmlns:xlink="http://www.w3.org/1999/xlink" version="1.1"><rect width="900" height="600" fill="#092734"></rect><g><g transform="translate(66 137)"><path d="M45.2 -26.5C55.1 -9.1 57 12.5 48.2 30.6C39.3 48.7 19.7 63.4 -0.1 63.4C-19.8 63.5 -39.6 48.9 -50.4 29.6C-61.3 10.3 -63.3 -13.7 -53.4 -31.2C-43.5 -48.7 -21.7 -59.7 -2 -58.5C17.7 -57.3 35.4 -44 45.2 -26.5Z" stroke="#494ba0" fill="none" stroke-width="20"></path></g><g transform="translate(798 435)"><path d="M23.4 -11.9C28.2 -5.3 28.4 5.6 23.8 13C19.1 20.4 9.6 24.3 1.4 23.5C-6.8 22.7 -13.6 17.2 -17.8 10C-22.1 2.9 -23.9 -6 -20.5 -11.8C-17.1 -17.6 -8.6 -20.3 0.4 -20.5C9.3 -20.7 18.7 -18.4 23.4 -11.9Z" stroke="#494ba0" fill="none" stroke-width="20"></path></g><g transform="translate(561 350)"><path d="M19 -10C23.7 -2.8 26 6.7 22.4 12.3C18.8 17.8 9.4 19.4 0.3 19.2C-8.9 19 -17.7 17.2 -22.2 11.1C-26.7 5 -26.9 -5.3 -22.5 -12.3C-18 -19.4 -9 -23.1 -0.9 -22.6C7.2 -22 14.3 -17.2 19 -10Z" stroke="#494ba0" fill="none" stroke-width="20"></path></g><g transform="translate(384 564)"><path d="M19.3 -11.3C22.4 -5.7 20.5 2.5 16.5 8.7C12.5 14.8 6.2 18.9 -0.7 19.3C-7.7 19.7 -15.3 16.5 -19.4 10.3C-23.6 4.1 -24.2 -5.1 -20.3 -11.1C-16.5 -17 -8.3 -19.8 -0.1 -19.7C8.1 -19.7 16.1 -16.8 19.3 -11.3Z" stroke="#494ba0" fill="none" stroke-width="20"></path></g><g transform="translate(358 30)"><path d="M38.3 -21.6C45.5 -9.7 44.2 7.6 36.5 18.9C28.7 30.1 14.3 35.5 1.6 34.6C-11.2 33.6 -22.4 26.5 -27.6 16.7C-32.8 6.9 -32.1 -5.6 -26.5 -16.5C-20.9 -27.5 -10.4 -36.9 2.6 -38.4C15.6 -39.9 31.2 -33.4 38.3 -21.6Z" stroke="#494ba0" fill="none" stroke-width="20"></path></g><g transform="translate(557 48)"><path d="M22.5 -14.6C26.4 -6.1 25.1 3.8 20.5 12.2C15.8 20.6 7.9 27.6 -0.8 28C-9.5 28.5 -18.9 22.4 -24 13.8C-29 5.1 -29.6 -6.2 -24.9 -15.1C-20.2 -24.1 -10.1 -30.7 -0.4 -30.5C9.3 -30.2 18.5 -23.1 22.5 -14.6Z" stroke="#494ba0" fill="none" stroke-width="20"></path></g><g transform="translate(57 419)"><path d="M26.1 -16.1C30.2 -8 27.3 3.1 21.8 11.8C16.3 20.6 8.2 27.1 -1.5 28C-11.2 28.8 -22.5 24.2 -27.5 15.6C-32.6 7.1 -31.4 -5.2 -25.8 -14.2C-20.2 -23.2 -10.1 -29 0.5 -29.3C11 -29.5 22 -24.3 26.1 -16.1Z" stroke="#494ba0" fill="none" stroke-width="20"></path></g><g transform="translate(380 278)"><path d="M38.3 -23.5C45.4 -9.8 44.1 7.4 36.3 20.7C28.5 34 14.2 43.3 0 43.3C-14.2 43.3 -28.3 33.9 -34.8 21.4C-41.2 8.9 -40 -6.7 -32.9 -20.4C-25.8 -34 -12.9 -45.7 1.3 -46.5C15.6 -47.3 31.2 -37.1 38.3 -23.5Z" stroke="#494ba0" fill="none" stroke-width="20"></path></g><g transform="translate(545 563)"><path d="M33.5 -17.2C41 -6.3 43 9.8 36.5 20.4C30 30.9 15 35.9 0.2 35.8C-14.7 35.7 -29.4 30.6 -36 20C-42.5 9.4 -40.9 -6.7 -33.6 -17.4C-26.2 -28.2 -13.1 -33.7 -0.1 -33.7C13 -33.7 26 -28.1 33.5 -17.2Z" stroke="#494ba0" fill="none" stroke-width="20"></path></g><g transform="translate(116 571)"><path d="M34.7 -18.8C42.8 -5.8 46 11.3 39.4 25.2C32.8 39.1 16.4 49.8 0.3 49.6C-15.8 49.5 -31.7 38.4 -38.2 24.6C-44.7 10.8 -41.8 -5.9 -33.9 -18.7C-26 -31.4 -13 -40.4 0.1 -40.4C13.2 -40.5 26.5 -31.7 34.7 -18.8Z" stroke="#494ba0" fill="none" stroke-width="20"></path></g><g transform="translate(715 10)"><path d="M18.5 -11C22.3 -4.1 22.6 4.6 18.9 11.3C15.3 18.1 7.6 22.9 0.5 22.6C-6.6 22.3 -13.2 16.8 -17.9 9.5C-22.6 2.2 -25.3 -7 -22 -13.6C-18.7 -20.2 -9.4 -24.2 -1 -23.6C7.4 -23 14.7 -17.9 18.5 -11Z" stroke="#494ba0" fill="none" stroke-width="20"></path></g><g transform="translate(884 32)"><path d="M26.5 -14.3C32.1 -5.6 32.8 6.9 27.6 16.4C22.4 25.8 11.2 32.3 1.6 31.4C-8 30.5 -15.9 22.1 -20.4 13.1C-25 4 -26 -5.8 -22 -13.5C-18.1 -21.2 -9 -26.9 0.7 -27.3C10.5 -27.7 20.9 -22.9 26.5 -14.3Z" stroke="#494ba0" fill="none" stroke-width="20"></path></g><g transform="translate(225 190)"><path d="M23.6 -14.3C27 -7.7 23.8 2.1 18.8 9.1C13.7 16 6.9 20.2 -0.6 20.5C-8.1 20.9 -16.2 17.5 -20.6 10.9C-25 4.3 -25.6 -5.4 -21.5 -12.4C-17.5 -19.4 -8.7 -23.7 0.7 -24C10.1 -24.4 20.2 -21 23.6 -14.3Z" stroke="#494ba0" fill="none" stroke-width="20"></path></g><g transform="translate(801 263)"><path d="M19.1 -9.7C23.5 -3.3 25.1 6 21.4 12.3C17.8 18.5 8.9 21.5 1.2 20.8C-6.5 20.1 -13 15.7 -16.9 9.3C-20.8 2.9 -22.2 -5.3 -18.9 -11.1C-15.7 -16.8 -7.8 -20 -0.3 -19.8C7.3 -19.7 14.6 -16.2 19.1 -9.7Z" stroke="#494ba0" fill="none" stroke-width="20"></path></g><g transform="translate(178 9)"><path d="M34.6 -16.8C42.9 -5.8 46.1 11.3 39.5 22.1C32.8 33 16.4 37.5 0.9 37C-14.7 36.5 -29.4 31 -34.7 21C-39.9 10.9 -35.7 -3.6 -28.3 -14.1C-21 -24.6 -10.5 -31.1 1.4 -31.9C13.2 -32.7 26.4 -27.8 34.6 -16.8Z" stroke="#494ba0" fill="none" stroke-width="20"></path></g><g transform="translate(253 466)"><path d="M36.8 -22.4C44.2 -8.5 44.2 8.5 36.8 22.9C29.4 37.4 14.7 49.3 -1.3 50.1C-17.4 50.8 -34.8 40.5 -43.7 25.1C-52.6 9.8 -53.1 -10.6 -44.4 -25.2C-35.7 -39.9 -17.8 -48.8 -1.6 -47.9C14.7 -47 29.5 -36.3 36.8 -22.4Z" stroke="#494ba0" fill="none" stroke-width="20"></path></g><g transform="translate(653 186)"><path d="M46.9 -26.7C55 -12.9 52 7.6 42.3 22.6C32.6 37.5 16.3 46.8 -1 47.4C-18.4 48 -36.8 39.9 -44.8 25.9C-52.9 11.9 -50.6 -8 -41.4 -22.3C-32.2 -36.7 -16.1 -45.4 1.6 -46.3C19.4 -47.3 38.7 -40.4 46.9 -26.7Z" stroke="#494ba0" fill="none" stroke-width="20"></path></g></g></svg>