<svg id="visual" viewBox="0 0 900 600" width="900" height="600" xmlns="http://www.w3.org/2000/svg" xmlns:xlink="http://www.w3.org/1999/xlink" version="1.1"><rect width="900" height="600" fill="#0a2834"></rect><g><g transform="translate(355 400)"><path d="M0 -34.7L30 -17.3L30 17.3L0 34.7L-30 17.3L-30 -17.3Z" fill="none" stroke="#6668e4" stroke-width="2"></path></g><g transform="translate(749 283)"><path d="M0 -31L26.8 -15.5L26.8 15.5L0 31L-26.8 15.5L-26.8 -15.5Z" stroke="#6668e4" fill="none" stroke-width="2"></path></g><g transform="translate(632 562)"><path d="M0 -23L19.9 -11.5L19.9 11.5L0 23L-19.9 11.5L-19.9 -11.5Z" stroke="#6668e4" fill="none" stroke-width="2"></path></g><g transform="translate(505 7)"><path d="M0 -26L22.5 -13L22.5 13L0 26L-22.5 13L-22.5 -13Z" stroke="#6668e4" fill="none" stroke-width="2"></path></g><g transform="translate(622 95)"><path d="M0 -27L23.4 -13.5L23.4 13.5L0 27L-23.4 13.5L-23.4 -13.5Z" stroke="#6668e4" fill="none" stroke-width="2"></path></g><g transform="translate(229 330)"><path d="M0 -29L25.1 -14.5L25.1 14.5L0 29L-25.1 14.5L-25.1 -14.5Z" stroke="#6668e4" fill="none" stroke-width="2"></path></g><g transform="translate(155 576)"><path d="M0 -29L25.1 -14.5L25.1 14.5L0 29L-25.1 14.5L-25.1 -14.5Z" stroke="#6668e4" fill="none" stroke-width="2"></path></g><g transform="translate(667 415)"><path d="M0 -23L19.9 -11.5L19.9 11.5L0 23L-19.9 11.5L-19.9 -11.5Z" stroke="#6668e4" fill="none" stroke-width="2"></path></g><g transform="translate(264 194)"><path d="M0 -27L23.4 -13.5L23.4 13.5L0 27L-23.4 13.5L-23.4 -13.5Z" stroke="#6668e4" fill="none" stroke-width="2"></path></g><g transform="translate(293 361)"><path d="M0 -23L19.9 -11.5L19.9 11.5L0 23L-19.9 11.5L-19.9 -11.5Z" stroke="#6668e4" fill="none" stroke-width="2"></path></g><g transform="translate(327 106)"><path d="M0 -23L19.9 -11.5L19.9 11.5L0 23L-19.9 11.5L-19.9 -11.5Z" stroke="#6668e4" fill="none" stroke-width="2"></path></g><g transform="translate(26 537)"><path d="M0 -26L22.5 -13L22.5 13L0 26L-22.5 13L-22.5 -13Z" stroke="#6668e4" fill="none" stroke-width="2"></path></g><g transform="translate(690 57)"><path d="M0 -25L21.7 -12.5L21.7 12.5L0 25L-21.7 12.5L-21.7 -12.5Z" stroke="#6668e4" fill="none" stroke-width="2"></path></g><g transform="translate(836 86)"><path d="M0 -32L27.7 -16L27.7 16L0 32L-27.7 16L-27.7 -16Z" stroke="#6668e4" fill="none" stroke-width="2"></path></g><g transform="translate(430 374)"><path d="M0 -23L19.9 -11.5L19.9 11.5L0 23L-19.9 11.5L-19.9 -11.5Z" stroke="#6668e4" fill="none" stroke-width="2"></path></g><g transform="translate(444 129)"><path d="M0 -30L26 -15L26 15L0 30L-26 15L-26 -15Z" stroke="#6668e4" fill="none" stroke-width="2"></path></g><g transform="translate(649 315)"><path d="M0 -24L20.8 -12L20.8 12L0 24L-20.8 12L-20.8 -12Z" stroke="#6668e4" fill="none" stroke-width="2"></path></g><g transform="translate(316 264)"><path d="M0 -33L28.6 -16.5L28.6 16.5L0 33L-28.6 16.5L-28.6 -16.5Z" stroke="#6668e4" fill="none" stroke-width="2"></path></g><g transform="translate(444 579)"><path d="M0 -30L26 -15L26 15L0 30L-26 15L-26 -15Z" stroke="#6668e4" fill="none" stroke-width="2"></path></g><g transform="translate(94 157)"><path d="M0 -22L19.1 -11L19.1 11L0 22L-19.1 11L-19.1 -11Z" stroke="#6668e4" fill="none" stroke-width="2"></path></g><g transform="translate(728 484)"><path d="M0 -23L19.9 -11.5L19.9 11.5L0 23L-19.9 11.5L-19.9 -11.5Z" stroke="#6668e4" fill="none" stroke-width="2"></path></g><g transform="translate(378 40)"><path d="M0 -28L24.2 -14L24.2 14L0 28L-24.2 14L-24.2 -14Z" stroke="#6668e4" fill="none" stroke-width="2"></path></g><g transform="translate(491 448)"><path d="M0 -26L22.5 -13L22.5 13L0 26L-22.5 13L-22.5 -13Z" stroke="#6668e4" fill="none" stroke-width="2"></path></g><g transform="translate(221 528)"><path d="M0 -28L24.2 -14L24.2 14L0 28L-24.2 14L-24.2 -14Z" stroke="#6668e4" fill="none" stroke-width="2"></path></g><g transform="translate(888 395)"><path d="M0 -29L25.1 -14.5L25.1 14.5L0 29L-25.1 14.5L-25.1 -14.5Z" stroke="#6668e4" fill="none" stroke-width="2"></path></g><g transform="translate(115 473)"><path d="M0 -25L21.7 -12.5L21.7 12.5L0 25L-21.7 12.5L-21.7 -12.5Z" stroke="#6668e4" fill="none" stroke-width="2"></path></g><g transform="translate(883 297)"><path d="M0 -33L28.6 -16.5L28.6 16.5L0 33L-28.6 16.5L-28.6 -16.5Z" stroke="#6668e4" fill="none" stroke-width="2"></path></g><g transform="translate(19 119)"><path d="M0 -32L27.7 -16L27.7 16L0 32L-27.7 16L-27.7 -16Z" stroke="#6668e4" fill="none" stroke-width="2"></path></g><g transform="translate(280 33)"><path d="M0 -32L27.7 -16L27.7 16L0 32L-27.7 16L-27.7 -16Z" stroke="#6668e4" fill="none" stroke-width="2"></path></g><g transform="translate(880 532)"><path d="M0 -23L19.9 -11.5L19.9 11.5L0 23L-19.9 11.5L-19.9 -11.5Z" stroke="#6668e4" fill="none" stroke-width="2"></path></g><g transform="translate(399 484)"><path d="M0 -27L23.4 -13.5L23.4 13.5L0 27L-23.4 13.5L-23.4 -13.5Z" stroke="#6668e4" fill="none" stroke-width="2"></path></g><g transform="translate(754 589)"><path d="M0 -32L27.7 -16L27.7 16L0 32L-27.7 16L-27.7 -16Z" stroke="#6668e4" fill="none" stroke-width="2"></path></g><g transform="translate(565 292)"><path d="M0 -24L20.8 -12L20.8 12L0 24L-20.8 12L-20.8 -12Z" stroke="#6668e4" fill="none" stroke-width="2"></path></g><g transform="translate(71 390)"><path d="M0 -28L24.2 -14L24.2 14L0 28L-24.2 14L-24.2 -14Z" stroke="#6668e4" fill="none" stroke-width="2"></path></g><g transform="translate(31 237)"><path d="M0 -32L27.7 -16L27.7 16L0 32L-27.7 16L-27.7 -16Z" stroke="#6668e4" fill="none" stroke-width="2"></path></g><g transform="translate(773 389)"><path d="M0 -22L19.1 -11L19.1 11L0 22L-19.1 11L-19.1 -11Z" stroke="#6668e4" fill="none" stroke-width="2"></path></g><g transform="translate(16 47)"><path d="M0 -33L28.6 -16.5L28.6 16.5L0 33L-28.6 16.5L-28.6 -16.5Z" stroke="#6668e4" fill="none" stroke-width="2"></path></g><g transform="translate(404 189)"><path d="M0 -33L28.6 -16.5L28.6 16.5L0 33L-28.6 16.5L-28.6 -16.5Z" stroke="#6668e4" fill="none" stroke-width="2"></path></g><g transform="translate(477 278)"><path d="M0 -26L22.5 -13L22.5 13L0 26L-22.5 13L-22.5 -13Z" stroke="#6668e4" fill="none" stroke-width="2"></path></g><g transform="translate(770 199)"><path d="M0 -23L19.9 -11.5L19.9 11.5L0 23L-19.9 11.5L-19.9 -11.5Z" stroke="#6668e4" fill="none" stroke-width="2"></path></g><g transform="translate(609 12)"><path d="M0 -28L24.2 -14L24.2 14L0 28L-24.2 14L-24.2 -14Z" stroke="#6668e4" fill="none" stroke-width="2"></path></g><g transform="translate(127 235)"><path d="M0 -23L19.9 -11.5L19.9 11.5L0 23L-19.9 11.5L-19.9 -11.5Z" stroke="#6668e4" fill="none" stroke-width="2"></path></g><g transform="translate(539 395)"><path d="M0 -27L23.4 -13.5L23.4 13.5L0 27L-23.4 13.5L-23.4 -13.5Z" stroke="#6668e4" fill="none" stroke-width="2"></path></g><g transform="translate(875 177)"><path d="M0 -30L26 -15L26 15L0 30L-26 15L-26 -15Z" stroke="#6668e4" fill="none" stroke-width="2"></path></g><g transform="translate(618 170)"><path d="M0 -33L28.6 -16.5L28.6 16.5L0 33L-28.6 16.5L-28.6 -16.5Z" stroke="#6668e4" fill="none" stroke-width="2"></path></g><g transform="translate(228 260)"><path d="M0 -28L24.2 -14L24.2 14L0 28L-24.2 14L-24.2 -14Z" stroke="#6668e4" fill="none" stroke-width="2"></path></g><g transform="translate(791 16)"><path d="M0 -22L19.1 -11L19.1 11L0 22L-19.1 11L-19.1 -11Z" stroke="#6668e4" fill="none" stroke-width="2"></path></g><g transform="translate(511 207)"><path d="M0 -23L19.9 -11.5L19.9 11.5L0 23L-19.9 11.5L-19.9 -11.5Z" stroke="#6668e4" fill="none" stroke-width="2"></path></g><g transform="translate(610 472)"><path d="M0 -29L25.1 -14.5L25.1 14.5L0 29L-25.1 14.5L-25.1 -14.5Z" stroke="#6668e4" fill="none" stroke-width="2"></path></g><g transform="translate(165 362)"><path d="M0 -24L20.8 -12L20.8 12L0 24L-20.8 12L-20.8 -12Z" stroke="#6668e4" fill="none" stroke-width="2"></path></g><g transform="translate(525 550)"><path d="M0 -31L26.8 -15.5L26.8 15.5L0 31L-26.8 15.5L-26.8 -15.5Z" stroke="#6668e4" fill="none" stroke-width="2"></path></g><g transform="translate(502 80)"><path d="M0 -29L25.1 -14.5L25.1 14.5L0 29L-25.1 14.5L-25.1 -14.5Z" stroke="#6668e4" fill="none" stroke-width="2"></path></g><g transform="translate(710 146)"><path d="M0 -22L19.1 -11L19.1 11L0 22L-19.1 11L-19.1 -11Z" stroke="#6668e4" fill="none" stroke-width="2"></path></g><g transform="translate(124 1)"><path d="M0 -23L19.9 -11.5L19.9 11.5L0 23L-19.9 11.5L-19.9 -11.5Z" stroke="#6668e4" fill="none" stroke-width="2"></path></g><g transform="translate(204 97)"><path d="M0 -26L22.5 -13L22.5 13L0 26L-22.5 13L-22.5 -13Z" stroke="#6668e4" fill="none" stroke-width="2"></path></g><g transform="translate(82 585)"><path d="M0 -27L23.4 -13.5L23.4 13.5L0 27L-23.4 13.5L-23.4 -13.5Z" stroke="#6668e4" fill="none" stroke-width="2"></path></g><g transform="translate(260 597)"><path d="M0 -32L27.7 -16L27.7 16L0 32L-27.7 16L-27.7 -16Z" stroke="#6668e4" fill="none" stroke-width="2"></path></g><g transform="translate(105 320)"><path d="M0 -21L18.2 -10.5L18.2 10.5L0 21L-18.2 10.5L-18.2 -10.5Z" stroke="#6668e4" fill="none" stroke-width="2"></path></g><g transform="translate(837 236)"><path d="M0 -32L27.7 -16L27.7 16L0 32L-27.7 16L-27.7 -16Z" stroke="#6668e4" fill="none" stroke-width="2"></path></g><g transform="translate(390 309)"><path d="M0 -31L26.8 -15.5L26.8 15.5L0 31L-26.8 15.5L-26.8 -15.5Z" stroke="#6668e4" fill="none" stroke-width="2"></path></g><g transform="translate(292 487)"><path d="M0 -31L26.8 -15.5L26.8 15.5L0 31L-26.8 15.5L-26.8 -15.5Z" stroke="#6668e4" fill="none" stroke-width="2"></path></g><g transform="translate(833 346)"><path d="M0 -28L24.2 -14L24.2 14L0 28L-24.2 14L-24.2 -14Z" stroke="#6668e4" fill="none" stroke-width="2"></path></g><g transform="translate(93 64)"><path d="M0 -27L23.4 -13.5L23.4 13.5L0 27L-23.4 13.5L-23.4 -13.5Z" stroke="#6668e4" fill="none" stroke-width="2"></path></g><g transform="translate(163 159)"><path d="M0 -22L19.1 -11L19.1 11L0 22L-19.1 11L-19.1 -11Z" stroke="#6668e4" fill="none" stroke-width="2"></path></g><g transform="translate(805 523)"><path d="M0 -31L26.8 -15.5L26.8 15.5L0 31L-26.8 15.5L-26.8 -15.5Z" stroke="#6668e4" fill="none" stroke-width="2"></path></g><g transform="translate(320 550)"><path d="M0 -30L26 -15L26 15L0 30L-26 15L-26 -15Z" stroke="#6668e4" fill="none" stroke-width="2"></path></g><g transform="translate(181 445)"><path d="M0 -22L19.1 -11L19.1 11L0 22L-19.1 11L-19.1 -11Z" stroke="#6668e4" fill="none" stroke-width="2"></path></g><g transform="translate(672 248)"><path d="M0 -24L20.8 -12L20.8 12L0 24L-20.8 12L-20.8 -12Z" stroke="#6668e4" fill="none" stroke-width="2"></path></g><g transform="translate(210 11)"><path d="M0 -29L25.1 -14.5L25.1 14.5L0 29L-25.1 14.5L-25.1 -14.5Z" stroke="#6668e4" fill="none" stroke-width="2"></path></g><g transform="translate(875 24)"><path d="M0 -27L23.4 -13.5L23.4 13.5L0 27L-23.4 13.5L-23.4 -13.5Z" stroke="#6668e4" fill="none" stroke-width="2"></path></g><g transform="translate(27 446)"><path d="M0 -31L26.8 -15.5L26.8 15.5L0 31L-26.8 15.5L-26.8 -15.5Z" stroke="#6668e4" fill="none" stroke-width="2"></path></g><g transform="translate(710 360)"><path d="M0 -25L21.7 -12.5L21.7 12.5L0 25L-21.7 12.5L-21.7 -12.5Z" stroke="#6668e4" fill="none" stroke-width="2"></path></g><g transform="translate(778 123)"><path d="M0 -22L19.1 -11L19.1 11L0 22L-19.1 11L-19.1 -11Z" stroke="#6668e4" fill="none" stroke-width="2"></path></g><g transform="translate(813 448)"><path d="M0 -31L26.8 -15.5L26.8 15.5L0 31L-26.8 15.5L-26.8 -15.5Z" stroke="#6668e4" fill="none" stroke-width="2"></path></g><g transform="translate(13 309)"><path d="M0 -30L26 -15L26 15L0 30L-26 15L-26 -15Z" stroke="#6668e4" fill="none" stroke-width="2"></path></g><g transform="translate(252 422)"><path d="M0 -23L19.9 -11.5L19.9 11.5L0 23L-19.9 11.5L-19.9 -11.5Z" stroke="#6668e4" fill="none" stroke-width="2"></path></g><g transform="translate(838 593)"><path d="M0 -22L19.1 -11L19.1 11L0 22L-19.1 11L-19.1 -11Z" stroke="#6668e4" fill="none" stroke-width="2"></path></g><g transform="translate(546 148)"><path d="M0 -32L27.7 -16L27.7 16L0 32L-27.7 16L-27.7 -16Z" stroke="#6668e4" fill="none" stroke-width="2"></path></g></g></svg>