<svg id="visual" viewBox="0 0 900 600" width="900" height="600" xmlns="http://www.w3.org/2000/svg" xmlns:xlink="http://www.w3.org/1999/xlink" version="1.1"><path d="M0 97L10.7 104C21.3 111 42.7 125 64.2 124C85.7 123 107.3 107 128.8 114C150.3 121 171.7 151 193 160C214.3 169 235.7 157 257 157C278.3 157 299.7 169 321.2 173C342.7 177 364.3 173 385.8 172C407.3 171 428.7 173 450 177C471.3 181 492.7 187 514.2 182C535.7 177 557.3 161 578.8 148C600.3 135 621.7 125 643 120C664.3 115 685.7 115 707 108C728.3 101 749.7 87 771.2 96C792.7 105 814.3 137 835.8 144C857.3 151 878.7 133 889.3 124L900 115L900 0L889.3 0C878.7 0 857.3 0 835.8 0C814.3 0 792.7 0 771.2 0C749.7 0 728.3 0 707 0C685.7 0 664.3 0 643 0C621.7 0 600.3 0 578.8 0C557.3 0 535.7 0 514.2 0C492.7 0 471.3 0 450 0C428.7 0 407.3 0 385.8 0C364.3 0 342.7 0 321.2 0C299.7 0 278.3 0 257 0C235.7 0 214.3 0 193 0C171.7 0 150.3 0 128.8 0C107.3 0 85.7 0 64.2 0C42.7 0 21.3 0 10.7 0L0 0Z" fill="#6b6ef6"></path><path d="M0 127L10.7 138C21.3 149 42.7 171 64.2 174C85.7 177 107.3 161 128.8 168C150.3 175 171.7 205 193 212C214.3 219 235.7 203 257 199C278.3 195 299.7 203 321.2 209C342.7 215 364.3 219 385.8 218C407.3 217 428.7 211 450 212C471.3 213 492.7 221 514.2 219C535.7 217 557.3 205 578.8 190C600.3 175 621.7 157 643 152C664.3 147 685.7 155 707 149C728.3 143 749.7 123 771.2 130C792.7 137 814.3 171 835.8 178C857.3 185 878.7 165 889.3 155L900 145L900 113L889.3 122C878.7 131 857.3 149 835.8 142C814.3 135 792.7 103 771.2 94C749.7 85 728.3 99 707 106C685.7 113 664.3 113 643 118C621.7 123 600.3 133 578.8 146C557.3 159 535.7 175 514.2 180C492.7 185 471.3 179 450 175C428.7 171 407.3 169 385.8 170C364.3 171 342.7 175 321.2 171C299.7 167 278.3 155 257 155C235.7 155 214.3 167 193 158C171.7 149 150.3 119 128.8 112C107.3 105 85.7 121 64.2 122C42.7 123 21.3 109 10.7 102L0 95Z" fill="#1757ab"></path><path d="M0 187L10.7 202C21.3 217 42.7 247 64.2 248C85.7 249 107.3 221 128.8 220C150.3 219 171.7 245 193 259C214.3 273 235.7 275 257 276C278.3 277 299.7 277 321.2 280C342.7 283 364.3 289 385.8 289C407.3 289 428.7 283 450 286C471.3 289 492.7 301 514.2 295C535.7 289 557.3 265 578.8 247C600.3 229 621.7 217 643 217C664.3 217 685.7 229 707 220C728.3 211 749.7 181 771.2 186C792.7 191 814.3 231 835.8 244C857.3 257 878.7 243 889.3 236L900 229L900 143L889.3 153C878.7 163 857.3 183 835.8 176C814.3 169 792.7 135 771.2 128C749.7 121 728.3 141 707 147C685.7 153 664.3 145 643 150C621.7 155 600.3 173 578.8 188C557.3 203 535.7 215 514.2 217C492.7 219 471.3 211 450 210C428.7 209 407.3 215 385.8 216C364.3 217 342.7 213 321.2 207C299.7 201 278.3 193 257 197C235.7 201 214.3 217 193 210C171.7 203 150.3 173 128.8 166C107.3 159 85.7 175 64.2 172C42.7 169 21.3 147 10.7 136L0 125Z" fill="#00375b"></path><path d="M0 241L10.7 254C21.3 267 42.7 293 64.2 294C85.7 295 107.3 271 128.8 269C150.3 267 171.7 287 193 300C214.3 313 235.7 319 257 319C278.3 319 299.7 313 321.2 318C342.7 323 364.3 339 385.8 342C407.3 345 428.7 335 450 335C471.3 335 492.7 345 514.2 336C535.7 327 557.3 299 578.8 284C600.3 269 621.7 267 643 268C664.3 269 685.7 273 707 264C728.3 255 749.7 233 771.2 239C792.7 245 814.3 279 835.8 291C857.3 303 878.7 293 889.3 288L900 283L900 227L889.3 234C878.7 241 857.3 255 835.8 242C814.3 229 792.7 189 771.2 184C749.7 179 728.3 209 707 218C685.7 227 664.3 215 643 215C621.7 215 600.3 227 578.8 245C557.3 263 535.7 287 514.2 293C492.7 299 471.3 287 450 284C428.7 281 407.3 287 385.8 287C364.3 287 342.7 281 321.2 278C299.7 275 278.3 275 257 274C235.7 273 214.3 271 193 257C171.7 243 150.3 217 128.8 218C107.3 219 85.7 247 64.2 246C42.7 245 21.3 215 10.7 200L0 185Z" fill="#011820"></path><path d="M0 283L10.7 297C21.3 311 42.7 339 64.2 342C85.7 345 107.3 323 128.8 317C150.3 311 171.7 321 193 330C214.3 339 235.7 347 257 349C278.3 351 299.7 347 321.2 351C342.7 355 364.3 367 385.8 373C407.3 379 428.7 379 450 379C471.3 379 492.7 379 514.2 367C535.7 355 557.3 331 578.8 319C600.3 307 621.7 307 643 310C664.3 313 685.7 319 707 311C728.3 303 749.7 281 771.2 284C792.7 287 814.3 315 835.8 327C857.3 339 878.7 335 889.3 333L900 331L900 281L889.3 286C878.7 291 857.3 301 835.8 289C814.3 277 792.7 243 771.2 237C749.7 231 728.3 253 707 262C685.7 271 664.3 267 643 266C621.7 265 600.3 267 578.8 282C557.3 297 535.7 325 514.2 334C492.7 343 471.3 333 450 333C428.7 333 407.3 343 385.8 340C364.3 337 342.7 321 321.2 316C299.7 311 278.3 317 257 317C235.7 317 214.3 311 193 298C171.7 285 150.3 265 128.8 267C107.3 269 85.7 293 64.2 292C42.7 291 21.3 265 10.7 252L0 239Z" fill="#011820"></path><path d="M0 397L10.7 409C21.3 421 42.7 445 64.2 444C85.7 443 107.3 417 128.8 407C150.3 397 171.7 403 193 412C214.3 421 235.7 433 257 436C278.3 439 299.7 433 321.2 429C342.7 425 364.3 423 385.8 431C407.3 439 428.7 457 450 460C471.3 463 492.7 451 514.2 444C535.7 437 557.3 435 578.8 421C600.3 407 621.7 381 643 376C664.3 371 685.7 387 707 388C728.3 389 749.7 375 771.2 375C792.7 375 814.3 389 835.8 401C857.3 413 878.7 423 889.3 428L900 433L900 329L889.3 331C878.7 333 857.3 337 835.8 325C814.3 313 792.7 285 771.2 282C749.7 279 728.3 301 707 309C685.7 317 664.3 311 643 308C621.7 305 600.3 305 578.8 317C557.3 329 535.7 353 514.2 365C492.7 377 471.3 377 450 377C428.7 377 407.3 377 385.8 371C364.3 365 342.7 353 321.2 349C299.7 345 278.3 349 257 347C235.7 345 214.3 337 193 328C171.7 319 150.3 309 128.8 315C107.3 321 85.7 343 64.2 340C42.7 337 21.3 309 10.7 295L0 281Z" fill="#00375b"></path><path d="M0 445L10.7 454C21.3 463 42.7 481 64.2 483C85.7 485 107.3 471 128.8 469C150.3 467 171.7 477 193 485C214.3 493 235.7 499 257 498C278.3 497 299.7 489 321.2 487C342.7 485 364.3 489 385.8 494C407.3 499 428.7 505 450 506C471.3 507 492.7 503 514.2 500C535.7 497 557.3 495 578.8 483C600.3 471 621.7 449 643 439C664.3 429 685.7 431 707 429C728.3 427 749.7 421 771.2 423C792.7 425 814.3 435 835.8 445C857.3 455 878.7 465 889.3 470L900 475L900 431L889.3 426C878.7 421 857.3 411 835.8 399C814.3 387 792.7 373 771.2 373C749.7 373 728.3 387 707 386C685.7 385 664.3 369 643 374C621.7 379 600.3 405 578.8 419C557.3 433 535.7 435 514.2 442C492.7 449 471.3 461 450 458C428.7 455 407.3 437 385.8 429C364.3 421 342.7 423 321.2 427C299.7 431 278.3 437 257 434C235.7 431 214.3 419 193 410C171.7 401 150.3 395 128.8 405C107.3 415 85.7 441 64.2 442C42.7 443 21.3 419 10.7 407L0 395Z" fill="#1757ab"></path><path d="M0 601L10.7 601C21.3 601 42.7 601 64.2 601C85.7 601 107.3 601 128.8 601C150.3 601 171.7 601 193 601C214.3 601 235.7 601 257 601C278.3 601 299.7 601 321.2 601C342.7 601 364.3 601 385.8 601C407.3 601 428.7 601 450 601C471.3 601 492.7 601 514.2 601C535.7 601 557.3 601 578.8 601C600.3 601 621.7 601 643 601C664.3 601 685.7 601 707 601C728.3 601 749.7 601 771.2 601C792.7 601 814.3 601 835.8 601C857.3 601 878.7 601 889.3 601L900 601L900 473L889.3 468C878.7 463 857.3 453 835.8 443C814.3 433 792.7 423 771.2 421C749.7 419 728.3 425 707 427C685.7 429 664.3 427 643 437C621.7 447 600.3 469 578.8 481C557.3 493 535.7 495 514.2 498C492.7 501 471.3 505 450 504C428.7 503 407.3 497 385.8 492C364.3 487 342.7 483 321.2 485C299.7 487 278.3 495 257 496C235.7 497 214.3 491 193 483C171.7 475 150.3 465 128.8 467C107.3 469 85.7 483 64.2 481C42.7 479 21.3 461 10.7 452L0 443Z" fill="#6b6ef6"></path></svg>