<svg xmlns="http://www.w3.org/2000/svg" viewBox="67.12440744726564 98.35996948242186 821.760018310547 332.8800045776368" width="821.760018310547" height="332.8800045776368"><g xmlns="http://www.w3.org/2000/svg" transform="matrix(0 -1 1 0 -0 450)"><rect x="0" y="0" width="450" height="900" fill="#202020"></rect><path d="M274 0L268 13.7C262 27.3 250 54.7 251.8 82C253.7 109.3 269.3 136.7 266 163.8C262.7 191 240.3 218 230.3 245.2C220.3 272.3 222.7 299.7 224.8 327C227 354.3 229 381.7 237.5 409C246 436.3 261 463.7 265 491C269 518.3 262 545.7 252 573C242 600.3 229 627.7 231.3 654.8C233.7 682 251.3 709 249.5 736.2C247.7 763.3 226.3 790.7 217.8 818C209.3 845.3 213.7 872.7 215.8 886.3L218 900L0 900L0 886.3C0 872.7 0 845.3 0 818C0 790.7 0 763.3 0 736.2C0 709 0 682 0 654.8C0 627.7 0 600.3 0 573C0 545.7 0 518.3 0 491C0 463.7 0 436.3 0 409C0 381.7 0 354.3 0 327C0 299.7 0 272.3 0 245.2C0 218 0 191 0 163.8C0 136.7 0 109.3 0 82C0 54.7 0 27.3 0 13.7L0 0Z" fill="#5d5ebb"></path><path d="M196 0L192.8 13.7C189.7 27.3 183.3 54.7 184 82C184.7 109.3 192.3 136.7 201.5 163.8C210.7 191 221.3 218 217.3 245.2C213.3 272.3 194.7 299.7 194.7 327C194.7 354.3 213.3 381.7 220.2 409C227 436.3 222 463.7 216 491C210 518.3 203 545.7 208.8 573C214.7 600.3 233.3 627.7 240.2 654.8C247 682 242 709 235.5 736.2C229 763.3 221 790.7 214.5 818C208 845.3 203 872.7 200.5 886.3L198 900L0 900L0 886.3C0 872.7 0 845.3 0 818C0 790.7 0 763.3 0 736.2C0 709 0 682 0 654.8C0 627.7 0 600.3 0 573C0 545.7 0 518.3 0 491C0 463.7 0 436.3 0 409C0 381.7 0 354.3 0 327C0 299.7 0 272.3 0 245.2C0 218 0 191 0 163.8C0 136.7 0 109.3 0 82C0 54.7 0 27.3 0 13.7L0 0Z" fill="#3d56a5"></path><path d="M214 0L209.2 13.7C204.3 27.3 194.7 54.7 188.7 82C182.7 109.3 180.3 136.7 182.5 163.8C184.7 191 191.3 218 187.2 245.2C183 272.3 168 299.7 161.5 327C155 354.3 157 381.7 160.7 409C164.3 436.3 169.7 463.7 167.8 491C166 518.3 157 545.7 158.7 573C160.3 600.3 172.7 627.7 173.8 654.8C175 682 165 709 162 736.2C159 763.3 163 790.7 165.5 818C168 845.3 169 872.7 169.5 886.3L170 900L0 900L0 886.3C0 872.7 0 845.3 0 818C0 790.7 0 763.3 0 736.2C0 709 0 682 0 654.8C0 627.7 0 600.3 0 573C0 545.7 0 518.3 0 491C0 463.7 0 436.3 0 409C0 381.7 0 354.3 0 327C0 299.7 0 272.3 0 245.2C0 218 0 191 0 163.8C0 136.7 0 109.3 0 82C0 54.7 0 27.3 0 13.7L0 0Z" fill="#1f4d8c"></path><path d="M182 0L173 13.7C164 27.3 146 54.7 140.8 82C135.7 109.3 143.3 136.7 142.7 163.8C142 191 133 218 132 245.2C131 272.3 138 299.7 145.8 327C153.7 354.3 162.3 381.7 160.3 409C158.3 436.3 145.7 463.7 143.5 491C141.3 518.3 149.7 545.7 155.5 573C161.3 600.3 164.7 627.7 160 654.8C155.3 682 142.7 709 138 736.2C133.3 763.3 136.7 790.7 143 818C149.3 845.3 158.7 872.7 163.3 886.3L168 900L0 900L0 886.3C0 872.7 0 845.3 0 818C0 790.7 0 763.3 0 736.2C0 709 0 682 0 654.8C0 627.7 0 600.3 0 573C0 545.7 0 518.3 0 491C0 463.7 0 436.3 0 409C0 381.7 0 354.3 0 327C0 299.7 0 272.3 0 245.2C0 218 0 191 0 163.8C0 136.7 0 109.3 0 82C0 54.7 0 27.3 0 13.7L0 0Z" fill="#064373"></path><path d="M147 0L144.8 13.7C142.7 27.3 138.3 54.7 136 82C133.7 109.3 133.3 136.7 129.7 163.8C126 191 119 218 115.2 245.2C111.3 272.3 110.7 299.7 112 327C113.3 354.3 116.7 381.7 119.8 409C123 436.3 126 463.7 128.7 491C131.3 518.3 133.7 545.7 137.3 573C141 600.3 146 627.7 140.2 654.8C134.3 682 117.7 709 114.3 736.2C111 763.3 121 790.7 121.2 818C121.3 845.3 111.7 872.7 106.8 886.3L102 900L0 900L0 886.3C0 872.7 0 845.3 0 818C0 790.7 0 763.3 0 736.2C0 709 0 682 0 654.8C0 627.7 0 600.3 0 573C0 545.7 0 518.3 0 491C0 463.7 0 436.3 0 409C0 381.7 0 354.3 0 327C0 299.7 0 272.3 0 245.2C0 218 0 191 0 163.8C0 136.7 0 109.3 0 82C0 54.7 0 27.3 0 13.7L0 0Z" fill="#003759"></path><path d="M73 0L76 13.7C79 27.3 85 54.7 92.8 82C100.7 109.3 110.3 136.7 113.5 163.8C116.7 191 113.3 218 107.2 245.2C101 272.3 92 299.7 87.7 327C83.3 354.3 83.7 381.7 82 409C80.3 436.3 76.7 463.7 82.3 491C88 518.3 103 545.7 108.2 573C113.3 600.3 108.7 627.7 100.8 654.8C93 682 82 709 82.2 736.2C82.3 763.3 93.7 790.7 97.5 818C101.3 845.3 97.7 872.7 95.8 886.3L94 900L0 900L0 886.3C0 872.7 0 845.3 0 818C0 790.7 0 763.3 0 736.2C0 709 0 682 0 654.8C0 627.7 0 600.3 0 573C0 545.7 0 518.3 0 491C0 463.7 0 436.3 0 409C0 381.7 0 354.3 0 327C0 299.7 0 272.3 0 245.2C0 218 0 191 0 163.8C0 136.7 0 109.3 0 82C0 54.7 0 27.3 0 13.7L0 0Z" fill="#002b40"></path><path d="M65 0L66.5 13.7C68 27.3 71 54.7 70 82C69 109.3 64 136.7 65 163.8C66 191 73 218 73.2 245.2C73.3 272.3 66.7 299.7 62.5 327C58.3 354.3 56.7 381.7 61 409C65.3 436.3 75.7 463.7 79 491C82.3 518.3 78.7 545.7 77.3 573C76 600.3 77 627.7 74.8 654.8C72.7 682 67.3 709 64.7 736.2C62 763.3 62 790.7 60.5 818C59 845.3 56 872.7 54.5 886.3L53 900L0 900L0 886.3C0 872.7 0 845.3 0 818C0 790.7 0 763.3 0 736.2C0 709 0 682 0 654.8C0 627.7 0 600.3 0 573C0 545.7 0 518.3 0 491C0 463.7 0 436.3 0 409C0 381.7 0 354.3 0 327C0 299.7 0 272.3 0 245.2C0 218 0 191 0 163.8C0 136.7 0 109.3 0 82C0 54.7 0 27.3 0 13.7L0 0Z" fill="#061e29"></path><path d="M31 0L28.8 13.7C26.7 27.3 22.3 54.7 24.5 82C26.7 109.3 35.3 136.7 41.2 163.8C47 191 50 218 48 245.2C46 272.3 39 299.7 34.8 327C30.7 354.3 29.3 381.7 32.2 409C35 436.3 42 463.7 41.7 491C41.3 518.3 33.7 545.7 29.8 573C26 600.3 26 627.7 26.8 654.8C27.7 682 29.3 709 34 736.2C38.7 763.3 46.3 790.7 50 818C53.7 845.3 53.3 872.7 53.2 886.3L53 900L0 900L0 886.3C0 872.7 0 845.3 0 818C0 790.7 0 763.3 0 736.2C0 709 0 682 0 654.8C0 627.7 0 600.3 0 573C0 545.7 0 518.3 0 491C0 463.7 0 436.3 0 409C0 381.7 0 354.3 0 327C0 299.7 0 272.3 0 245.2C0 218 0 191 0 163.8C0 136.7 0 109.3 0 82C0 54.7 0 27.3 0 13.7L0 0Z" fill="#051014"></path></g></svg>