<svg id="visual" viewBox="0 0 900 600" width="900" height="600" xmlns="http://www.w3.org/2000/svg" xmlns:xlink="http://www.w3.org/1999/xlink" version="1.1"><g stroke-width="1" stroke-linejoin="bevel"><path d="M458 341L360 321L449 427Z" fill="#051c29" stroke="#051c29"></path><path d="M360 321L336 417L449 427Z" fill="#364792" stroke="#364792"></path><path d="M336 417L341 440L449 427Z" fill="#03090c" stroke="#03090c"></path><path d="M391 189L294 257L360 321Z" fill="#133d75" stroke="#133d75"></path><path d="M360 321L244 311L336 417Z" fill="#03090c" stroke="#03090c"></path><path d="M336 417L251 458L341 440Z" fill="#051c29" stroke="#051c29"></path><path d="M458 341L442 216L360 321Z" fill="#003156" stroke="#003156"></path><path d="M227 386L251 458L336 417Z" fill="#05141b" stroke="#05141b"></path><path d="M341 440L427 555L449 427Z" fill="#051c29" stroke="#051c29"></path><path d="M294 257L244 311L360 321Z" fill="#133d75" stroke="#133d75"></path><path d="M244 311L227 386L336 417Z" fill="#051c29" stroke="#051c29"></path><path d="M366 600L427 555L341 440Z" fill="#053766" stroke="#053766"></path><path d="M442 216L391 189L360 321Z" fill="#03090c" stroke="#03090c"></path><path d="M427 555L484 553L449 427Z" fill="#002a46" stroke="#002a46"></path><path d="M626 414L621 354L458 341Z" fill="#051c29" stroke="#051c29"></path><path d="M484 553L567 496L449 427Z" fill="#03090c" stroke="#03090c"></path><path d="M458 341L643 254L442 216Z" fill="#133d75" stroke="#133d75"></path><path d="M209 600L274 547L251 458Z" fill="#364792" stroke="#364792"></path><path d="M251 458L274 547L341 440Z" fill="#364792" stroke="#364792"></path><path d="M626 414L458 341L449 427Z" fill="#133d75" stroke="#133d75"></path><path d="M274 547L366 600L341 440Z" fill="#133d75" stroke="#133d75"></path><path d="M427 555L533 600L484 553Z" fill="#053766" stroke="#053766"></path><path d="M567 496L626 414L449 427Z" fill="#051c29" stroke="#051c29"></path><path d="M391 189L317 164L294 257Z" fill="#234384" stroke="#234384"></path><path d="M294 257L236 168L244 311Z" fill="#03090c" stroke="#03090c"></path><path d="M274 547L311 600L366 600Z" fill="#002a46" stroke="#002a46"></path><path d="M484 553L533 600L567 496Z" fill="#002a46" stroke="#002a46"></path><path d="M567 496L644 493L626 414Z" fill="#053766" stroke="#053766"></path><path d="M366 600L533 600L427 555Z" fill="#234384" stroke="#234384"></path><path d="M317 164L236 168L294 257Z" fill="#003156" stroke="#003156"></path><path d="M244 311L69 338L227 386Z" fill="#051c29" stroke="#051c29"></path><path d="M637 600L644 493L567 496Z" fill="#03090c" stroke="#03090c"></path><path d="M626 414L670 390L621 354Z" fill="#002337" stroke="#002337"></path><path d="M644 493L670 390L626 414Z" fill="#05141b" stroke="#05141b"></path><path d="M621 354L643 254L458 341Z" fill="#364792" stroke="#364792"></path><path d="M751 354L643 254L621 354Z" fill="#234384" stroke="#234384"></path><path d="M442 216L405 68L391 189Z" fill="#051c29" stroke="#051c29"></path><path d="M391 189L405 68L317 164Z" fill="#003156" stroke="#003156"></path><path d="M80 434L251 458L227 386Z" fill="#494ba0" stroke="#494ba0"></path><path d="M78 553L209 600L251 458Z" fill="#03090c" stroke="#03090c"></path><path d="M274 547L209 600L311 600Z" fill="#494ba0" stroke="#494ba0"></path><path d="M236 168L137 232L244 311Z" fill="#053766" stroke="#053766"></path><path d="M751 354L669 241L643 254Z" fill="#05141b" stroke="#05141b"></path><path d="M510 53L405 68L442 216Z" fill="#494ba0" stroke="#494ba0"></path><path d="M653 151L442 216L643 254Z" fill="#03090c" stroke="#03090c"></path><path d="M317 164L285 50L236 168Z" fill="#133d75" stroke="#133d75"></path><path d="M69 338L80 434L227 386Z" fill="#002337" stroke="#002337"></path><path d="M533 600L637 600L567 496Z" fill="#002a46" stroke="#002a46"></path><path d="M824 473L751 354L670 390Z" fill="#494ba0" stroke="#494ba0"></path><path d="M137 232L69 338L244 311Z" fill="#003156" stroke="#003156"></path><path d="M669 241L653 151L643 254Z" fill="#053766" stroke="#053766"></path><path d="M542 55L510 53L442 216Z" fill="#003156" stroke="#003156"></path><path d="M405 68L285 50L317 164Z" fill="#234384" stroke="#234384"></path><path d="M236 168L158 108L137 232Z" fill="#133d75" stroke="#133d75"></path><path d="M412 0L285 50L405 68Z" fill="#003156" stroke="#003156"></path><path d="M824 473L670 390L644 493Z" fill="#002a46" stroke="#002a46"></path><path d="M670 390L751 354L621 354Z" fill="#364792" stroke="#364792"></path><path d="M669 241L747 167L653 151Z" fill="#003156" stroke="#003156"></path><path d="M653 151L542 55L442 216Z" fill="#003156" stroke="#003156"></path><path d="M637 600L679 600L644 493Z" fill="#002a46" stroke="#002a46"></path><path d="M174 55L158 108L236 168Z" fill="#053766" stroke="#053766"></path><path d="M0 333L0 386L69 338Z" fill="#002337" stroke="#002337"></path><path d="M0 549L78 553L80 434Z" fill="#234384" stroke="#234384"></path><path d="M80 434L78 553L251 458Z" fill="#234384" stroke="#234384"></path><path d="M491 0L405 68L510 53Z" fill="#05141b" stroke="#05141b"></path><path d="M491 0L412 0L405 68Z" fill="#002a46" stroke="#002a46"></path><path d="M613 0L491 0L542 55Z" fill="#053766" stroke="#053766"></path><path d="M542 55L491 0L510 53Z" fill="#234384" stroke="#234384"></path><path d="M275 0L174 55L285 50Z" fill="#03090c" stroke="#03090c"></path><path d="M285 50L174 55L236 168Z" fill="#133d75" stroke="#133d75"></path><path d="M0 333L69 338L0 192Z" fill="#133d75" stroke="#133d75"></path><path d="M412 0L275 0L285 50Z" fill="#234384" stroke="#234384"></path><path d="M69 338L0 386L80 434Z" fill="#003156" stroke="#003156"></path><path d="M69 338L137 232L0 192Z" fill="#002a46" stroke="#002a46"></path><path d="M0 192L137 232L158 108Z" fill="#05141b" stroke="#05141b"></path><path d="M751 354L747 167L669 241Z" fill="#051c29" stroke="#051c29"></path><path d="M653 151L613 0L542 55Z" fill="#05141b" stroke="#05141b"></path><path d="M0 549L56 600L78 553Z" fill="#051c29" stroke="#051c29"></path><path d="M78 553L56 600L209 600Z" fill="#03090c" stroke="#03090c"></path><path d="M0 386L0 549L80 434Z" fill="#03090c" stroke="#03090c"></path><path d="M709 59L613 0L653 151Z" fill="#133d75" stroke="#133d75"></path><path d="M679 600L824 473L644 493Z" fill="#051c29" stroke="#051c29"></path><path d="M751 354L854 288L747 167Z" fill="#003156" stroke="#003156"></path><path d="M0 80L0 192L158 108Z" fill="#05141b" stroke="#05141b"></path><path d="M747 167L709 59L653 151Z" fill="#494ba0" stroke="#494ba0"></path><path d="M275 0L149 0L174 55Z" fill="#003156" stroke="#003156"></path><path d="M174 55L65 0L158 108Z" fill="#003156" stroke="#003156"></path><path d="M0 549L0 600L56 600Z" fill="#234384" stroke="#234384"></path><path d="M900 343L854 288L751 354Z" fill="#053766" stroke="#053766"></path><path d="M782 0L749 0L709 59Z" fill="#05141b" stroke="#05141b"></path><path d="M679 600L808 600L824 473Z" fill="#002a46" stroke="#002a46"></path><path d="M824 473L900 343L751 354Z" fill="#494ba0" stroke="#494ba0"></path><path d="M65 0L0 80L158 108Z" fill="#234384" stroke="#234384"></path><path d="M900 523L900 343L824 473Z" fill="#002337" stroke="#002337"></path><path d="M782 0L709 59L833 41Z" fill="#133d75" stroke="#133d75"></path><path d="M900 343L900 314L854 288Z" fill="#364792" stroke="#364792"></path><path d="M149 0L65 0L174 55Z" fill="#053766" stroke="#053766"></path><path d="M900 218L747 167L854 288Z" fill="#05141b" stroke="#05141b"></path><path d="M709 59L749 0L613 0Z" fill="#133d75" stroke="#133d75"></path><path d="M808 600L900 523L824 473Z" fill="#002a46" stroke="#002a46"></path><path d="M900 314L900 218L854 288Z" fill="#003156" stroke="#003156"></path><path d="M833 41L709 59L747 167Z" fill="#133d75" stroke="#133d75"></path><path d="M808 600L900 600L900 523Z" fill="#133d75" stroke="#133d75"></path><path d="M900 99L833 41L747 167Z" fill="#002a46" stroke="#002a46"></path><path d="M65 0L0 0L0 80Z" fill="#053766" stroke="#053766"></path><path d="M900 218L900 99L747 167Z" fill="#051c29" stroke="#051c29"></path><path d="M900 99L900 0L833 41Z" fill="#234384" stroke="#234384"></path><path d="M833 41L900 0L782 0Z" fill="#05141b" stroke="#05141b"></path></g></svg>